<?xml version="1.0" encoding="UTF-8" standalone="no"?>
<svg
   xmlns:dc="http://purl.org/dc/elements/1.1/"
   xmlns:cc="http://creativecommons.org/ns#"
   xmlns:rdf="http://www.w3.org/1999/02/22-rdf-syntax-ns#"
   xmlns:svg="http://www.w3.org/2000/svg"
   xmlns="http://www.w3.org/2000/svg"
   xmlns:sodipodi="http://sodipodi.sourceforge.net/DTD/sodipodi-0.dtd"
   xmlns:inkscape="http://www.inkscape.org/namespaces/inkscape"
   version="1.0"
   width="1600.000000pt"
   height="412.000000pt"
   viewBox="0 0 1600.000000 412.000000"
   preserveAspectRatio="xMidYMid meet"
   id="svg28"
   sodipodi:docname="logo-blanco.svg"
   inkscape:version="0.92.4 (5da689c313, 2019-01-14)">
  <metadata
     id="metadata34">
    <rdf:RDF>
      <cc:Work
         rdf:about="">
        <dc:format>image/svg+xml</dc:format>
        <dc:type
           rdf:resource="http://purl.org/dc/dcmitype/StillImage" />
        <dc:title />
      </cc:Work>
    </rdf:RDF>
  </metadata>
  <defs
     id="defs32" />
  <sodipodi:namedview
     pagecolor="#ffffff"
     bordercolor="#666666"
     borderopacity="1"
     objecttolerance="10"
     gridtolerance="10"
     guidetolerance="10"
     inkscape:pageopacity="0"
     inkscape:pageshadow="2"
     inkscape:window-width="1920"
     inkscape:window-height="1017"
     id="namedview30"
     showgrid="false"
     inkscape:zoom="0.654375"
     inkscape:cx="790.09214"
     inkscape:cy="359.48654"
     inkscape:window-x="-8"
     inkscape:window-y="-8"
     inkscape:window-maximized="1"
     inkscape:current-layer="g26" />
  <g
     transform="translate(0.000000,412.000000) scale(0.100000,-0.100000)"
     fill="#000000"
     stroke="none"
     id="g26">
    <path
       d="M2 2058 l3 -2053 664 0 665 0 39 105 c22 58 111 294 199 525 88 231 241 636 340 900 99 264 220 586 270 715 49 129 216 569 369 978 154 409 290 771 304 804 14 34 25 65 25 70 0 4 -648 8 -1440 8 l-1440 0 2 -2052z"
       id="path2"
       style="fill:#ffffff;fill-opacity:1" />
    <path
       d="M3653 4093 c3 -10 64 -164 137 -343 72 -179 167 -415 210 -525 43 -110 133 -333 198 -495 222 -549 349 -864 430 -1070 44 -113 122 -306 172 -430 154 -378 354 -876 420 -1045 34 -88 66 -166 72 -172 8 -9 52 -13 159 -13 146 0 149 0 154 22 3 13 4 936 3 2053 l-3 2030 -979 3 c-929 2 -978 1 -973 -15z"
       id="path4"
       style="fill:#ffffff;fill-opacity:1" />
    <path
       d="M6550 4103 c0 -5 39 -120 86 -258 81 -234 354 -1042 814 -2408 235 -697 209 -626 220 -607 4 8 71 202 148 430 77 228 206 604 287 835 161 461 335 967 355 1030 13 41 323 936 335 968 7 16 -51 17 -1119 17 -619 0 -1126 -3 -1126 -7z"
       id="path6"
       style="fill:#ffffff;fill-opacity:1" />
    <path
       d="M9662 2058 l3 -2053 383 -3 382 -2 0 2055 0 2055 -385 0 -385 0 2 -2052z"
       id="path8"
       style="fill:#ffffff;fill-opacity:1" />
    <path
       d="M11363 4098 c14 -40 184 -537 352 -1033 106 -313 239 -703 295 -865 56 -162 181 -529 277 -815 200 -591 192 -569 199 -563 2 3 62 176 133 384 71 208 182 530 246 714 64 184 173 499 242 700 180 527 319 928 422 1224 50 143 91 261 91 263 0 2 -509 3 -1131 3 -901 0 -1130 -3 -1126 -12z"
       id="path10"
       style="fill:#ffffff;fill-opacity:1" />
    <path
       d="M14490 2070 l0 -2040 755 0 755 0 0 2040 0 2040 -755 0 -755 0 0 -2040z"
       id="path12"
       style="fill:#ffffff;fill-opacity:1" />
    <path
       d="M3053 2962 c-181 -514 -413 -1182 -413 -1189 0 -2 284 -3 630 -3 347 0 630 3 630 6 0 9 -216 587 -446 1191 -107 282 -194 517 -194 522 0 50 -42 -56 -207 -527z"
       id="path14"
       style="fill:#ffffff;fill-opacity:1" />
    <path
       d="M11080 1592 l0 -1592 545 0 c300 0 545 4 545 9 0 12 -251 750 -475 1396 -103 297 -236 684 -295 860 -124 369 -311 908 -316 914 -2 2 -4 -712 -4 -1587z"
       id="path16"
       style="fill:#ffffff;fill-opacity:1" />
    <path
       d="M6256 1750 c2 -784 7 -1498 10 -1587 l6 -163 534 0 c294 0 534 1 534 3 0 9 -214 638 -360 1057 -95 272 -228 659 -295 860 -113 333 -413 1204 -428 1240 -3 8 -4 -626 -1 -1410z"
       id="path18"
       style="fill:#ffffff;fill-opacity:1" />
    <path
       d="M8935 2888 c-54 -156 -149 -434 -210 -618 -62 -184 -188 -551 -280 -815 -138 -397 -472 -1374 -492 -1437 -5 -17 25 -18 541 -18 l546 0 0 1585 c0 872 -1 1585 -3 1585 -2 0 -48 -127 -102 -282z"
       id="path20"
       style="fill:#ffffff;fill-opacity:1" />
    <path
       d="M13718 2807 c-125 -360 -159 -457 -321 -927 -47 -135 -170 -488 -275 -785 -245 -698 -372 -1067 -372 -1083 0 -9 118 -12 550 -12 l550 0 0 1585 c0 872 -1 1585 -2 1585 -2 0 -60 -163 -130 -363z"
       id="path22"
       style="fill:#ffffff;fill-opacity:1" />
    <path
       d="M2371 1033 c-34 -98 -107 -302 -161 -453 -54 -151 -120 -337 -148 -412 l-49 -138 1278 0 c704 0 1279 3 1279 7 0 4 -56 149 -125 322 -68 174 -171 435 -227 581 l-103 265 -840 3 -840 2 -64 -177z"
       id="path24"
       style="fill:#ffffff;fill-opacity:1" />
    <path
       style="fill:#ffffff;stroke-width:1.52817571;fill-opacity:1"
       d="M 0.78938279,274.57867 V 1.7174059 L 190.92047,2.1813367 C 295.49257,2.4364988 381.41363,3.0075816 381.85616,3.4504098 382.62384,4.2186318 369.53544,39.295523 288.92645,252.502 269.38331,304.19255 236.31796,391.69971 215.4479,446.96236 L 177.50234,547.43992 H 89.145857 0.78938279 Z"
       id="path40"
       inkscape:connector-curvature="0"
       transform="matrix(7.5000003,0,0,-7.5000003,0,4120)" />
    <path
       style="fill:#ffffff;stroke-width:1.52817571;fill-opacity:1"
       d="m 270.36342,541.92849 c 0.51815,-1.35029 13.06907,-36.42192 27.89093,-77.93696 l 26.94882,-75.48189 h 88.93505 c 48.91427,0 99.18764,0.45027 111.71861,1.00059 l 22.78356,1.00059 22.09056,56.68805 c 12.1498,31.17842 25.67058,65.79979 30.04619,76.93637 l 7.95564,20.24833 H 439.07705 c -155.17771,0 -169.57534,-0.20951 -168.71363,-2.45508 z"
       id="path42"
       inkscape:connector-curvature="0"
       transform="matrix(7.5000003,0,0,-7.5000003,0,4120)" />
    <path
       style="fill:#ffffff;stroke-width:1.52817571;fill-opacity:1"
       d="m 353.79798,310.66003 c 0,-0.79247 2.36806,-8.18502 5.26236,-16.42789 2.89429,-8.24289 18.10371,-51.77789 33.79869,-96.74447 15.69499,-44.96657 31.29782,-88.91043 34.67295,-97.653032 l 6.13661,-15.895636 11.05603,29.649218 c 6.08082,16.30707 25.2446,67.30539 42.58618,113.3296 17.34158,46.0242 31.53016,84.01847 31.53016,84.43171 0,0.41323 -37.13467,0.75133 -82.52149,0.75133 -50.66053,0 -82.52149,-0.55631 -82.52149,-1.44083 z"
       id="path44"
       inkscape:connector-curvature="0"
       transform="matrix(7.5000003,0,0,-7.5000003,0,4120)" />
    <path
       style="fill:#ffffff;stroke-width:1.52817571;fill-opacity:1"
       d="M 709.02327,547.92978 C 706.41414,547.41151 687.71011,502.0159 596.97327,275.97903 537.06833,126.74827 488.50599,4.1992322 489.05695,3.6478255 490.44117,2.2624993 697.90776,1.4248758 724.76264,2.6961896 l 21.7765,1.030903 V 275.42001 c 0,246.33867 -0.22557,271.77948 -2.41725,272.6205 -2.6052,0.99972 -29.94239,0.91346 -35.09862,-0.11079 z"
       id="path46"
       inkscape:connector-curvature="0"
       transform="matrix(7.5000003,0,0,-7.5000003,0,4120)" />
    <path
       style="fill:#ffffff;stroke-width:1.52817571;fill-opacity:1"
       d="m 836.18454,515.73027 c -0.55204,-18.2808 -0.95421,-111.63324 -0.8937,-207.44985 l 0.11,-174.21204 3.56741,9.93314 c 5.83233,16.23959 31.7474,91.32659 53.53366,155.10984 11.19636,32.77937 34.85484,101.72806 52.57439,153.21932 17.71956,51.49125 32.21738,94.29928 32.21738,95.12894 0,0.97057 -24.97968,1.50848 -70.05272,1.50848 h -70.05272 z"
       id="path48"
       inkscape:connector-curvature="0"
       transform="matrix(7.5000003,0,0,-7.5000003,0,4120)" />
    <path
       style="fill:#ffffff;stroke-width:1.52817571;fill-opacity:1"
       d="M 1020.9744,436.08972 C 1020.1672,434.78361 998.29924,370.22644 890.77081,51.710608 882.00511,25.745255 875.25064,4.0833635 875.76088,3.5730714 877.00599,2.327831 1169.3207,2.377035 1170.5665,3.6226948 c 0.5376,0.5375849 -9.6824,31.8269832 -22.7111,69.5319962 -57.9574,167.727779 -94.9859,275.177289 -109.4654,317.647219 -8.5967,25.2149 -15.82,46.06294 -16.0517,46.32898 -0.2318,0.26604 -0.8456,-0.20248 -1.3639,-1.04117 z"
       id="path50"
       inkscape:connector-curvature="0"
       transform="matrix(7.5000003,0,0,-7.5000003,0,4120)" />
    <path
       style="fill:#ffffff;stroke-width:1.52817571;fill-opacity:1"
       d="m 1065.5458,547.87354 c -2.3113,-0.35015 -4.2025,-0.89634 -4.2025,-1.21375 0,-0.31742 15.5373,-45.83048 34.5272,-101.14015 18.99,-55.30964 49.2364,-143.63232 67.2142,-196.27258 17.9779,-52.64026 34.7223,-101.12164 37.2098,-107.73639 l 4.5227,-12.02682 0.087,209.74212 0.087,209.74213 -67.6218,-0.22897 c -37.192,-0.12592 -69.5129,-0.51545 -71.8243,-0.86559 z"
       id="path52"
       inkscape:connector-curvature="0"
       transform="matrix(7.5000003,0,0,-7.5000003,0,4120)" />
    <path
       style="fill:#ffffff;stroke-width:1.52817571;fill-opacity:1"
       d="m 1304.7053,547.82826 -15.6638,-0.49527 V 274.60709 1.8811798 h 50.4298 50.4298 V 275.42464 548.9681 l -34.766,-0.3223 c -19.1213,-0.17725 -41.8147,-0.54514 -50.4298,-0.81754 z"
       id="path54"
       inkscape:connector-curvature="0"
       transform="matrix(7.5000003,0,0,-7.5000003,0,4120)" />
    <path
       style="fill:#ffffff;stroke-width:1.52817571;fill-opacity:1"
       d="m 1478.5951,339.99006 c 0.05,-172.86163 0.4033,-208.18571 2.0469,-204.3935 1.0928,2.52149 15.4982,44.12607 32.0119,92.45463 16.5137,48.32856 47.8592,139.78988 69.6567,203.24737 l 39.6319,115.37727 -10.1945,0.95632 c -5.607,0.52597 -37.8736,1.04173 -71.7036,1.14613 l -61.5091,0.18982 z"
       id="path56"
       inkscape:connector-curvature="0"
       transform="matrix(7.5000003,0,0,-7.5000003,0,4120)" />
    <path
       style="fill:#ffffff;stroke-width:1.52817571;fill-opacity:1"
       d="M 1652.2755,403.40936 C 1645.9038,384.70831 1612.7367,287.3521 1578.5708,187.06222 1544.4048,86.772331 1516.9167,4.2508409 1517.486,3.6811214 c 1.114,-1.1146751 297.248,-2.3848477 297.248,-1.2749506 0,0.3663813 -8.884,26.3580272 -19.7421,57.7592132 -10.8582,31.401186 -43.5923,126.204816 -72.7425,210.674726 -61.5142,178.25261 -57.4484,166.57116 -57.9765,166.57116 -0.227,0 -5.6258,-15.30086 -11.9974,-34.00191 z"
       id="path58"
       inkscape:connector-curvature="0"
       transform="matrix(7.5000003,0,0,-7.5000003,0,4120)" />
    <path
       style="fill:#ffffff;stroke-width:1.52817571;fill-opacity:1"
       d="m 1708.1437,547.84915 c -4.2459,-0.38241 -6.4947,-1.32059 -6.4947,-2.70949 0,-1.16849 2.0342,-7.83381 4.5205,-14.81184 5.2043,-14.60627 58.0885,-166.27941 102.7313,-294.63575 16.8089,-48.32856 31.8242,-91.3085 33.3675,-95.51099 2.747,-7.48042 2.8082,-3.2686 2.9175,200.57307 l 0.1117,208.21395 -65.3295,-0.26699 c -35.9312,-0.14686 -68.2522,-0.53022 -71.8243,-0.85196 z"
       id="path60"
       inkscape:connector-curvature="0"
       transform="matrix(7.5000003,0,0,-7.5000003,0,4120)" />
    <path
       style="fill:#ffffff;stroke-width:1.52817571;fill-opacity:1"
       d="M 1932.4035,273.13237 V 1.8811798 h 100.0955 100.0955 V 273.13237 544.38357 H 2032.499 1932.4035 Z"
       id="path62"
       inkscape:connector-curvature="0"
       transform="matrix(7.5000003,0,0,-7.5000003,0,4120)" />
  </g>
</svg>
