<?xml version="1.0" standalone="no"?>
<!DOCTYPE svg PUBLIC "-//W3C//DTD SVG 20010904//EN"
 "http://www.w3.org/TR/2001/REC-SVG-20010904/DTD/svg10.dtd">
<svg version="1.0" xmlns="http://www.w3.org/2000/svg"
 width="1600.000000pt" height="412.000000pt" viewBox="0 0 1600.000000 412.000000"
 preserveAspectRatio="xMidYMid meet">

<g transform="translate(0.000000,412.000000) scale(0.100000,-0.100000)"
fill="#000000" stroke="none">
<path d="M2 2058 l3 -2053 664 0 665 0 39 105 c22 58 111 294 199 525 88 231
241 636 340 900 99 264 220 586 270 715 49 129 216 569 369 978 154 409 290
771 304 804 14 34 25 65 25 70 0 4 -648 8 -1440 8 l-1440 0 2 -2052z"/>
<path d="M3653 4093 c3 -10 64 -164 137 -343 72 -179 167 -415 210 -525 43
-110 133 -333 198 -495 222 -549 349 -864 430 -1070 44 -113 122 -306 172
-430 154 -378 354 -876 420 -1045 34 -88 66 -166 72 -172 8 -9 52 -13 159 -13
146 0 149 0 154 22 3 13 4 936 3 2053 l-3 2030 -979 3 c-929 2 -978 1 -973
-15z"/>
<path d="M6550 4103 c0 -5 39 -120 86 -258 81 -234 354 -1042 814 -2408 235
-697 209 -626 220 -607 4 8 71 202 148 430 77 228 206 604 287 835 161 461
335 967 355 1030 13 41 323 936 335 968 7 16 -51 17 -1119 17 -619 0 -1126 -3
-1126 -7z"/>
<path d="M9662 2058 l3 -2053 383 -3 382 -2 0 2055 0 2055 -385 0 -385 0 2
-2052z"/>
<path d="M11363 4098 c14 -40 184 -537 352 -1033 106 -313 239 -703 295 -865
56 -162 181 -529 277 -815 200 -591 192 -569 199 -563 2 3 62 176 133 384 71
208 182 530 246 714 64 184 173 499 242 700 180 527 319 928 422 1224 50 143
91 261 91 263 0 2 -509 3 -1131 3 -901 0 -1130 -3 -1126 -12z"/>
<path d="M14490 2070 l0 -2040 755 0 755 0 0 2040 0 2040 -755 0 -755 0 0
-2040z"/>
<path d="M3053 2962 c-181 -514 -413 -1182 -413 -1189 0 -2 284 -3 630 -3 347
0 630 3 630 6 0 9 -216 587 -446 1191 -107 282 -194 517 -194 522 0 50 -42
-56 -207 -527z"/>
<path d="M11080 1592 l0 -1592 545 0 c300 0 545 4 545 9 0 12 -251 750 -475
1396 -103 297 -236 684 -295 860 -124 369 -311 908 -316 914 -2 2 -4 -712 -4
-1587z"/>
<path d="M6256 1750 c2 -784 7 -1498 10 -1587 l6 -163 534 0 c294 0 534 1 534
3 0 9 -214 638 -360 1057 -95 272 -228 659 -295 860 -113 333 -413 1204 -428
1240 -3 8 -4 -626 -1 -1410z"/>
<path d="M8935 2888 c-54 -156 -149 -434 -210 -618 -62 -184 -188 -551 -280
-815 -138 -397 -472 -1374 -492 -1437 -5 -17 25 -18 541 -18 l546 0 0 1585 c0
872 -1 1585 -3 1585 -2 0 -48 -127 -102 -282z"/>
<path d="M13718 2807 c-125 -360 -159 -457 -321 -927 -47 -135 -170 -488 -275
-785 -245 -698 -372 -1067 -372 -1083 0 -9 118 -12 550 -12 l550 0 0 1585 c0
872 -1 1585 -2 1585 -2 0 -60 -163 -130 -363z"/>
<path d="M2371 1033 c-34 -98 -107 -302 -161 -453 -54 -151 -120 -337 -148
-412 l-49 -138 1278 0 c704 0 1279 3 1279 7 0 4 -56 149 -125 322 -68 174
-171 435 -227 581 l-103 265 -840 3 -840 2 -64 -177z"/>
</g>
</svg>
